<svg width="39" height="39" viewBox="0 0 39 39" fill="none" xmlns="http://www.w3.org/2000/svg">
<path d="M11.375 14.625V11.375H34.125V14.625H11.375ZM11.375 21.125V17.875H34.125V21.125H11.375ZM11.375 27.625V24.375H34.125V27.625H11.375ZM6.5 14.625C6.03958 14.625 5.65365 14.4693 5.34219 14.1578C5.03073 13.8464 4.875 13.4604 4.875 13C4.875 12.5396 5.03073 12.1536 5.34219 11.8422C5.65365 11.5307 6.03958 11.375 6.5 11.375C6.96042 11.375 7.34635 11.5307 7.65781 11.8422C7.96927 12.1536 8.125 12.5396 8.125 13C8.125 13.4604 7.96927 13.8464 7.65781 14.1578C7.34635 14.4693 6.96042 14.625 6.5 14.625ZM6.5 21.125C6.03958 21.125 5.65365 20.9693 5.34219 20.6578C5.03073 20.3464 4.875 19.9604 4.875 19.5C4.875 19.0396 5.03073 18.6536 5.34219 18.3422C5.65365 18.0307 6.03958 17.875 6.5 17.875C6.96042 17.875 7.34635 18.0307 7.65781 18.3422C7.96927 18.6536 8.125 19.0396 8.125 19.5C8.125 19.9604 7.96927 20.3464 7.65781 20.6578C7.34635 20.9693 6.96042 21.125 6.5 21.125ZM6.5 27.625C6.03958 27.625 5.65365 27.4693 5.34219 27.1578C5.03073 26.8464 4.875 26.4604 4.875 26C4.875 25.5396 5.03073 25.1536 5.34219 24.8422C5.65365 24.5307 6.03958 24.375 6.5 24.375C6.96042 24.375 7.34635 24.5307 7.65781 24.8422C7.96927 25.1536 8.125 25.5396 8.125 26C8.125 26.4604 7.96927 26.8464 7.65781 27.1578C7.34635 27.4693 6.96042 27.625 6.5 27.625Z" fill="white"/>
</svg>
