<svg width="17" height="19" viewBox="0 0 17 19" fill="none" xmlns="http://www.w3.org/2000/svg">
<path d="M15.625 7.9165C15.625 13.4582 8.5 18.2082 8.5 18.2082C8.5 18.2082 1.375 13.4582 1.375 7.9165C1.375 6.02684 2.12567 4.21456 3.46186 2.87837C4.79806 1.54217 6.61033 0.791504 8.5 0.791504C10.3897 0.791504 12.2019 1.54217 13.5381 2.87837C14.8743 4.21456 15.625 6.02684 15.625 7.9165Z" stroke="white" stroke-width="1.66667" stroke-linecap="round" stroke-linejoin="round"/>
<path d="M8.5 10.2915C9.81168 10.2915 10.875 9.22818 10.875 7.9165C10.875 6.60483 9.81168 5.5415 8.5 5.5415C7.18832 5.5415 6.125 6.60483 6.125 7.9165C6.125 9.22818 7.18832 10.2915 8.5 10.2915Z" stroke="white" stroke-width="1.66667" stroke-linecap="round" stroke-linejoin="round"/>
</svg>
