<svg width="25" height="25" viewBox="0 0 25 25" fill="none" xmlns="http://www.w3.org/2000/svg">
<path d="M12.2809 12.2808C10.6052 12.2808 9.17065 11.6841 7.97733 10.4908C6.784 9.29744 6.18734 7.86291 6.18734 6.18718C6.18734 4.51144 6.784 3.07691 7.97733 1.88358C9.17065 0.690253 10.6052 0.0935898 12.2809 0.0935898C13.9567 0.0935898 15.3912 0.690253 16.5845 1.88358C17.7778 3.07691 18.3745 4.51144 18.3745 6.18718C18.3745 7.86291 17.7778 9.29744 16.5845 10.4908C15.3912 11.6841 13.9567 12.2808 12.2809 12.2808ZM0.09375 24.4679V20.2024C0.09375 19.3392 0.315912 18.5457 0.760236 17.8221C1.20456 17.0985 1.79488 16.5463 2.53118 16.1654C4.10536 15.3783 5.70493 14.788 7.32988 14.3945C8.95484 14.0009 10.6052 13.8042 12.2809 13.8042C13.9567 13.8042 15.607 14.0009 17.232 14.3945C18.8569 14.788 20.4565 15.3783 22.0307 16.1654C22.767 16.5463 23.3573 17.0985 23.8016 17.8221C24.2459 18.5457 24.4681 19.3392 24.4681 20.2024V24.4679H0.09375ZM3.14054 21.4211H21.4213V20.2024C21.4213 19.9231 21.3515 19.6692 21.2118 19.4407C21.0722 19.2122 20.8881 19.0345 20.6596 18.9075C19.2885 18.222 17.9048 17.7079 16.5083 17.3651C15.1119 17.0223 13.7028 16.851 12.2809 16.851C10.8591 16.851 9.44994 17.0223 8.0535 17.3651C6.65705 17.7079 5.2733 18.222 3.90224 18.9075C3.67373 19.0345 3.48965 19.2122 3.35001 19.4407C3.21037 19.6692 3.14054 19.9231 3.14054 20.2024V21.4211ZM12.2809 9.23397C13.1188 9.23397 13.8361 8.93564 14.4327 8.33897C15.0294 7.74231 15.3277 7.02504 15.3277 6.18718C15.3277 5.34931 15.0294 4.63204 14.4327 4.03538C13.8361 3.43871 13.1188 3.14038 12.2809 3.14038C11.4431 3.14038 10.7258 3.43871 10.1291 4.03538C9.53246 4.63204 9.23413 5.34931 9.23413 6.18718C9.23413 7.02504 9.53246 7.74231 10.1291 8.33897C10.7258 8.93564 11.4431 9.23397 12.2809 9.23397Z" fill="black"/>
</svg>
