<svg width="31" height="32" viewBox="0 0 31 32" fill="none" xmlns="http://www.w3.org/2000/svg">
<path fill-rule="evenodd" clip-rule="evenodd" d="M0.132324 1.86784C0.132324 1.59671 0.240034 1.33668 0.431757 1.14497C0.623481 0.953249 0.883515 0.845543 1.15465 0.845543H4.22164C4.44968 0.845606 4.67116 0.92191 4.85085 1.06232C5.03053 1.20273 5.15811 1.39919 5.2133 1.62044L6.04139 4.93473H29.7799C29.93 4.93487 30.0782 4.96807 30.2141 5.03196C30.3499 5.09585 30.47 5.18886 30.5658 5.3044C30.6616 5.41994 30.7309 5.55517 30.7685 5.70047C30.8062 5.84577 30.8114 5.99759 30.7838 6.14513L27.7168 22.5019C27.673 22.7362 27.5486 22.9477 27.3653 23.1001C27.182 23.2524 26.9512 23.3359 26.7129 23.3361H8.31096C8.07262 23.3359 7.84184 23.2524 7.65853 23.1001C7.47521 22.9477 7.35088 22.7362 7.30703 22.5019L4.24209 6.1758L3.42422 2.89014H1.15465C0.883515 2.89014 0.623481 2.78243 0.431757 2.59071C0.240034 2.399 0.132324 2.13897 0.132324 1.86784ZM6.47485 6.97933L9.15949 21.2915H25.8643L28.549 6.97933H6.47485ZM10.3556 23.3361C9.27106 23.3361 8.23093 23.7669 7.46403 24.5338C6.69714 25.3007 6.2663 26.3408 6.2663 27.4253C6.2663 28.5098 6.69714 29.5499 7.46403 30.3168C8.23093 31.0836 9.27106 31.5145 10.3556 31.5145C11.4402 31.5145 12.4803 31.0836 13.2472 30.3168C14.0141 29.5499 14.4449 28.5098 14.4449 27.4253C14.4449 26.3408 14.0141 25.3007 13.2472 24.5338C12.4803 23.7669 11.4402 23.3361 10.3556 23.3361ZM24.6682 23.3361C23.5837 23.3361 22.5435 23.7669 21.7766 24.5338C21.0097 25.3007 20.5789 26.3408 20.5789 27.4253C20.5789 28.5098 21.0097 29.5499 21.7766 30.3168C22.5435 31.0836 23.5837 31.5145 24.6682 31.5145C25.7528 31.5145 26.7929 31.0836 27.5598 30.3168C28.3267 29.5499 28.7575 28.5098 28.7575 27.4253C28.7575 26.3408 28.3267 25.3007 27.5598 24.5338C26.7929 23.7669 25.7528 23.3361 24.6682 23.3361ZM10.3556 25.3807C9.81334 25.3807 9.29327 25.5961 8.90982 25.9795C8.52638 26.363 8.31096 26.883 8.31096 27.4253C8.31096 27.9675 8.52638 28.4876 8.90982 28.871C9.29327 29.2545 9.81334 29.4699 10.3556 29.4699C10.8979 29.4699 11.418 29.2545 11.8014 28.871C12.1849 28.4876 12.4003 27.9675 12.4003 27.4253C12.4003 26.883 12.1849 26.363 11.8014 25.9795C11.418 25.5961 10.8979 25.3807 10.3556 25.3807ZM24.6682 25.3807C24.1259 25.3807 23.6059 25.5961 23.2224 25.9795C22.839 26.363 22.6236 26.883 22.6236 27.4253C22.6236 27.9675 22.839 28.4876 23.2224 28.871C23.6059 29.2545 24.1259 29.4699 24.6682 29.4699C25.2105 29.4699 25.7306 29.2545 26.114 28.871C26.4975 28.4876 26.7129 27.9675 26.7129 27.4253C26.7129 26.883 26.4975 26.363 26.114 25.9795C25.7306 25.5961 25.2105 25.3807 24.6682 25.3807Z" fill="black"/>
</svg>
